<svg width="80" height="80" viewBox="0 0 80 80" fill="none" xmlns="http://www.w3.org/2000/svg">
<path d="M80 40C80 39.5141 79.9912 39.03 79.9742 38.5483C79.21 17.1294 61.6055 0 40 0C18.3945 0 0.79 17.1294 0.0259375 38.5483C0.00875 39.03 0 39.5141 0 40C0 62.0914 20.5472 78.5484 40 78.5484C59.8053 78.5484 80 62.0914 80 40Z" fill="#FF5876"/>
<path d="M40 77.0968C18.3948 77.0968 0.793438 59.9669 0.0290625 38.5483C0.0117188 39.0305 0 39.5138 0 40.0001C0 62.0915 17.9086 80.0001 40 80.0001C62.0914 80.0001 80 62.0915 80 40.0001C80 39.5138 79.9883 39.0305 79.9711 38.5485C79.2066 59.9671 61.6052 77.0968 40 77.0968Z" fill="#E6485D"/>
<path d="M73.3466 38.5482C72.5866 20.7877 57.9475 6.62207 39.9999 6.62207C22.0522 6.62207 7.41318 20.7877 6.65318 38.5482C6.63255 39.0296 6.65302 71.2546 39.9999 71.2546C73.3468 71.2546 73.3672 39.0296 73.3466 38.5482Z" fill="#E4EEF9"/>
<path d="M40 70.4746C22.0525 70.4746 7.41579 56.3086 6.65547 38.5483C6.63485 39.0299 6.62219 39.5133 6.62219 39.9999C6.62219 58.434 21.5659 73.3777 40 73.3777C58.4341 73.3777 73.3778 58.4341 73.3778 40.0001C73.3778 39.5135 73.365 39.0299 73.3445 38.5485C72.5842 56.3088 57.9475 70.4746 40 70.4746Z" fill="#D5E0F2"/>
<path d="M52.1241 28.289C51.1727 27.3507 49.6408 27.3611 48.7027 28.3124L43.0255 34.0682L43.596 36.8083L46.2479 37.6918L52.1477 31.7104C53.0858 30.7591 53.0753 29.2272 52.1241 28.289Z" fill="#405B6C"/>
<path d="M36.5752 34.2886L23.6999 22.8148C22.7023 21.9258 21.1731 22.0139 20.2841 23.0116C19.3952 24.0091 19.4832 25.5384 20.4809 26.4273L33.6098 38.127L36.3455 37.2145L36.5752 34.2886Z" fill="#405B6C"/>
<path d="M57.1307 55.5996C56.856 55.5996 56.5801 55.5067 56.3532 55.3162L41.0293 42.4446C40.5179 42.0149 40.4513 41.2518 40.881 40.7404C41.3107 40.2287 42.0737 40.1623 42.5854 40.5921L57.9093 53.4638C58.4207 53.8935 58.4873 54.6567 58.0576 55.1681C57.8184 55.4529 57.4757 55.5996 57.1307 55.5996Z" fill="#86DCFF"/>
<path d="M33.6097 38.1273L35.8691 40.1407L38.7707 39.1548L38.6133 36.1049L36.5754 34.2888C35.1574 35.1409 34.0841 36.506 33.6097 38.1273Z" fill="#2D4456"/>
<path d="M43.0253 34.0681L41.1044 36.0156V39.8384H44.1303L46.2478 37.6917C45.6659 36.1173 44.5055 34.8247 43.0253 34.0681Z" fill="#2D4456"/>
<path d="M43.8724 38.5481C43.2846 36.9809 41.7726 35.8655 40.0001 35.8655C38.2276 35.8655 36.7156 36.9809 36.1278 38.5481C35.9584 38.9999 36.1165 42.6828 40.0001 42.6828C43.8837 42.6828 44.0418 38.9999 43.8724 38.5481Z" fill="#FF5876"/>
<path d="M39.9999 41.2314C38.2274 41.2314 36.716 40.1158 36.1282 38.5486C35.9586 39.0003 35.8654 39.4892 35.8654 40.0001C35.8654 42.2836 37.7164 44.1345 39.9997 44.1345C42.2832 44.1345 44.1341 42.2834 44.1341 40.0001C44.1341 39.4892 44.0408 39.0003 43.8715 38.5486C43.2838 40.1156 41.7724 41.2314 39.9999 41.2314Z" fill="#E6485D"/>
<path d="M41.2119 14.6208V10.8666C41.2119 10.1972 40.6693 9.65454 39.9999 9.65454C39.3305 9.65454 38.7878 10.1972 38.7878 10.8666V14.6208C38.7878 15.2902 39.3303 15.8328 39.9999 15.8328C40.6694 15.8328 41.2119 15.2902 41.2119 14.6208Z" fill="#405B6C"/>
<path d="M38.7878 65.379V69.1332C38.7878 69.8026 39.3303 70.3453 39.9999 70.3453C40.6694 70.3453 41.2119 69.8026 41.2119 69.1332V65.379C41.2119 64.7096 40.6693 64.167 39.9999 64.167C39.3305 64.167 38.7878 64.7096 38.7878 65.379Z" fill="#405B6C"/>
<path d="M69.1334 41.2117C69.8029 41.2117 70.3454 40.669 70.3454 39.9996C70.3454 39.3303 69.8027 38.7876 69.1334 38.7876H65.3791C64.7098 38.7876 64.1671 39.3303 64.1671 39.9996C64.1671 40.669 64.7098 41.2117 65.3791 41.2117H69.1334Z" fill="#405B6C"/>
<path d="M10.8664 38.7876C10.1969 38.7876 9.65442 39.3303 9.65442 39.9996C9.65442 40.669 10.1969 41.2117 10.8664 41.2117H14.6207C15.2902 41.2117 15.8327 40.669 15.8327 39.9996C15.8327 39.3303 15.29 38.7876 14.6207 38.7876H10.8664Z" fill="#405B6C"/>
</svg>
