<svg width="80" height="80" viewBox="0 0 80 80" fill="none" xmlns="http://www.w3.org/2000/svg">
<path d="M14.2991 37.2751C14.6803 37.2751 15.0566 37.2571 15.4303 37.2298L20.3235 69.3693L40.0001 71.6331L59.6765 69.3693L64.5697 37.2298C64.9434 37.257 65.3197 37.2751 65.7009 37.2751C73.5981 37.2751 80 31.3314 80 23.9998C80 16.6681 73.5981 10.7246 65.7009 10.7246C63.4513 10.7246 61.3239 11.2081 59.4304 12.0676C56.278 4.98506 48.7675 0 40.0001 0C35.1309 0 30.6493 1.53748 27.0867 4.1182C24.2346 6.18416 21.9713 8.91848 20.5696 12.0674C18.6761 11.2081 16.5487 10.7244 14.2991 10.7244C6.40189 10.7244 0 16.6679 0 23.9996C0 31.3314 6.40189 37.2751 14.2991 37.2751Z" fill="#F2F5FB"/>
<path d="M66.6582 10.754C65.4298 10.6781 64.2334 10.7501 63.0846 10.9479C69.7383 12.0847 74.7807 17.4937 74.7807 23.9998C74.7807 29.766 70.1095 33.2176 64.509 33.9924C61.6594 34.3866 59.4414 36.497 59.0399 39.1457L54.4573 69.3693L57.5671 71.622L59.6765 69.3693L64.5697 37.2298C64.9434 37.257 65.3197 37.2751 65.7009 37.2751C73.7725 37.2751 80.2821 31.066 79.9905 23.5119C79.7296 16.7511 73.9289 11.2035 66.6582 10.754Z" fill="#E6E8F0"/>
<path d="M30.3896 72.0347C29.7422 72.0347 29.1808 71.5879 29.0968 70.9761L25.8885 47.5802C25.7975 46.9166 26.3033 46.3101 27.0181 46.2256C27.7349 46.1414 28.3863 46.6106 28.4772 47.2743L31.6855 70.6702C31.7765 71.3339 31.2707 71.9404 30.5559 72.0248C30.5 72.0315 30.4444 72.0347 30.3896 72.0347Z" fill="#E6E8F0"/>
<path d="M49.6103 72.0344C49.5558 72.0344 49.5007 72.0312 49.445 72.0247C48.7301 71.9407 48.2237 71.3347 48.3142 70.6709L51.5224 47.1135C51.6129 46.45 52.2649 45.9811 52.9807 46.0636C53.6955 46.1476 54.202 46.7536 54.1115 47.4175L50.9032 70.9749C50.8197 71.587 50.2578 72.0344 49.6103 72.0344Z" fill="#E6E8F0"/>
<path d="M39.9996 71.6222C39.279 71.6222 38.6948 71.0798 38.6948 70.4108V47.6364C38.6948 46.9674 39.279 46.425 39.9996 46.425C40.7202 46.425 41.3045 46.9674 41.3045 47.6364V70.4107C41.3045 71.0798 40.7202 71.6222 39.9996 71.6222Z" fill="#E6E8F0"/>
<path d="M20.3237 69.3694L21.5071 77.2086C21.7488 78.8092 23.2235 80 24.9643 80H55.0359C56.7767 80 58.2516 78.8092 58.4933 77.2086L59.6766 69.3694H20.3237Z" fill="#B5E9FF"/>
<path d="M54.4579 69.3694L53.2745 77.2086C53.0329 78.8092 51.5581 80 49.8171 80H55.0364C56.7771 80 58.2521 78.8092 58.4937 77.2086L59.6771 69.3694H54.4579Z" fill="#93DDFE"/>
</svg>
