<svg width="80" height="80" viewBox="0 0 80 80" fill="none" xmlns="http://www.w3.org/2000/svg">
<path d="M33.4526 22.6002L37.6119 18.6301C38.814 17.4786 38.814 15.6451 37.6119 14.4929C37.0377 13.9455 36.2508 13.6371 35.4292 13.6371C34.6076 13.6371 33.8207 13.9455 33.2465 14.4929L37.6119 10.3558C38.8161 9.20435 38.8161 7.37011 37.6119 6.21867C37.0377 5.67122 36.2508 5.36282 35.4292 5.36282C34.6076 5.36282 33.8207 5.67122 33.2465 6.21867L31.0558 8.28723V2.77105C31.0796 1.78862 30.5307 0.871499 29.6201 0.373211C28.7103 -0.124404 27.582 -0.124404 26.6722 0.373211C25.7616 0.871499 25.2127 1.78862 25.2366 2.77105V8.28723L23.0618 6.2254C22.4861 5.67594 21.6963 5.36619 20.8718 5.36619C20.0473 5.36619 19.2575 5.67594 18.6818 6.2254C17.4769 7.37416 17.4689 9.2057 18.6645 10.3625L22.5837 14.132C21.3585 13.359 19.7146 13.5152 18.6818 14.501C18.245 14.9172 17.9521 15.4457 17.8421 16.0181C17.6447 16.9615 17.9506 17.9352 18.663 18.6301L23.678 23.4567C23.4632 23.2527 23.2339 23.0332 23.0068 22.8117C22.4427 22.2602 21.6623 21.9457 20.8443 21.941C20.0263 21.9363 19.2416 22.242 18.6702 22.7867C17.4755 23.924 17.4755 25.7421 18.6702 26.8794L28.2192 35.8681L37.6119 26.9043C38.814 25.7529 38.814 23.9193 37.6119 22.7672C36.4895 21.6993 34.6691 21.6259 33.4526 22.6002Z" fill="#70942D"/>
<path d="M32.5859 15.1836H48.8791V57.934H32.5859V15.1836Z" fill="#63A6D3"/>
<path d="M48.8794 57.9342H63.6914V15.1838L56.2854 8.28857L48.8794 15.1838V57.9342Z" fill="#4092C9"/>
<path d="M32.5859 15.1838L39.9919 8.28857H56.2851L48.8791 15.1838H32.5859Z" fill="#579FD0"/>
<path d="M39.9922 2.77222H56.2853V8.28839H39.9922V2.77222Z" fill="#D6D9DB"/>
<path d="M71.8238 0.0141602C74.5461 0.0599488 77.0723 1.34136 78.589 3.44696C80.1049 5.55189 80.4202 8.21436 79.433 10.5765L64.0034 48.8161C62.8317 51.7916 59.7984 53.7774 56.3941 53.7969C53.6726 53.7511 51.1463 52.4697 49.6296 50.3648C48.113 48.2592 47.7977 45.5967 48.7856 43.2346L64.2138 4.99502C65.3862 2.01943 68.4195 0.034361 71.8238 0.0141602Z" fill="#D68033"/>
<path d="M48.7856 43.2347C47.7977 45.5968 48.113 48.2593 49.6296 50.3649C51.1463 52.4698 53.6726 53.7512 56.3941 53.797C59.7984 53.7775 62.8317 51.7918 64.0033 48.8162L74.013 24.0095C67.9233 28.3541 60.7639 31.2131 53.1858 32.3282L48.7856 43.2347Z" fill="#D17726"/>
<path d="M66.624 11.473L69.4411 10.6191L72.334 18.8941L69.517 19.7472L66.624 11.473Z" fill="#C96E23"/>
<path d="M62.2825 21.1275L65.0988 20.2737L67.9925 28.548L65.1762 29.4018L62.2825 21.1275Z" fill="#C96E23"/>
<path d="M12.4678 13.0701L15.0874 11.7812L20.5652 21.4352L17.9456 22.7234L12.4678 13.0701Z" fill="#88B337"/>
<path d="M7.89404 17.1839L9.88079 15.1382L18.274 22.2058L16.2865 24.2515L7.89404 17.1839Z" fill="#88B337"/>
<path d="M37.8412 52.3741C36.5445 53.1781 34.8022 52.9249 33.8301 51.7903L15.3151 30.1572C14.1015 28.8273 13.5511 27.0806 13.8014 25.3507C14.0516 23.6215 15.0786 22.0721 16.6278 21.089C18.1741 20.116 20.0958 19.8117 21.901 20.2534C23.7062 20.6951 25.2185 21.8405 26.0509 23.396L38.8943 48.8612C39.5264 50.1129 39.0794 51.6071 37.8427 52.3741H37.8412Z" fill="#FF7230"/>
<path d="M20.6206 26.8728L15.5977 30.4901L17.4434 32.6469L22.4337 29.0545L20.6206 26.8728Z" fill="#DE5718"/>
<path d="M24.6958 32.605L20.2109 35.8789L22.0581 38.0377L26.5248 34.7772L24.6958 32.605Z" fill="#DE5718"/>
<path d="M45.9167 33.8006C45.9167 37.9895 42.2694 41.3853 37.7701 41.3853C33.2708 41.3853 29.6235 37.9895 29.6235 33.8006C29.6235 29.6116 33.2708 26.2158 37.7701 26.2158C42.2694 26.2158 45.9167 29.6116 45.9167 33.8006Z" fill="#FF9B30"/>
<path d="M41.448 27.0437C42.1198 29.888 41.2165 32.8562 39.0417 34.9496C36.8677 37.0431 33.7107 37.9831 30.6355 37.4525C32.3149 40.3177 35.7749 41.861 39.2254 41.284C42.6767 40.7076 45.3441 38.1394 45.8482 34.9092C46.3523 31.6791 44.5796 28.511 41.448 27.0437Z" fill="#F28E22"/>
<path d="M53.3227 33.1113L48.8791 35.8694L44.4355 33.1113L39.9919 35.8694L35.5483 33.1113L31.1047 35.8694L26.6611 33.1113L22.2175 35.8694L17.7739 33.1113V74.4827C17.7739 77.529 20.4261 79.9989 23.6987 79.9989H57.7663V35.8694L53.3227 33.1113Z" fill="#F0AE62"/>
<path d="M66.6538 35.8694L62.2102 33.1113L57.7666 35.8694V79.9989H65.1726C68.4446 79.9989 71.0974 77.529 71.0974 74.4827V33.1113L66.6538 35.8694Z" fill="#E6994E"/>
<path d="M23.6553 77.3211L24.1725 76.3555C25.8084 73.3092 26.6604 69.9498 26.6611 66.5439C26.6727 64.5508 25.5878 62.6903 23.7855 61.6143C21.9832 60.5375 19.7151 60.3948 17.7739 61.2358V74.4829C17.7754 76.6518 19.1445 78.6173 21.2708 79.5041C22.3029 79.0409 23.1411 78.2739 23.6553 77.3211Z" fill="#EDA047"/>
<path d="M13.3306 64.8295H10.3682V59.3133C10.3682 57.7902 9.04173 56.5552 7.40576 56.5552V53.7971C10.6777 53.7971 13.3306 56.267 13.3306 59.3133V64.8295Z" fill="#965735"/>
<path d="M16.0401 79.9988C15.2322 79.9988 14.4352 79.8237 13.7127 79.487L11.8496 78.6197L9.98581 79.487C9.26329 79.8237 8.467 79.9988 7.65914 79.9988C5.6883 79.9988 3.8867 78.9618 3.00507 77.3208L2.48795 76.3552C0.85198 73.3089 1.39379e-07 69.9495 1.39379e-07 66.5437C-0.000723112 63.3115 2.81341 60.6915 6.28425 60.6921C7.95133 60.6921 9.54969 61.3089 10.7279 62.4065L11.8496 63.4502L12.9706 62.4065C14.1495 61.3089 15.7479 60.6921 17.4142 60.6921C20.8858 60.6915 23.6999 63.3115 23.6992 66.5437C23.6992 69.9509 22.8472 73.3116 21.2105 76.3592L20.6934 77.3248C19.8111 78.9645 18.0095 79.9994 16.0401 79.9988Z" fill="#E3584B"/>
<path d="M20.837 61.645C17.3444 71.0101 8.07971 75.6893 3.16455 77.5734C4.53293 79.7948 7.52643 80.6352 9.98545 79.4871L11.8492 78.6198L13.7123 79.4871C16.2827 80.6843 19.4086 79.7147 20.6931 77.3209L21.2102 76.3553C22.8461 73.309 23.6981 69.9496 23.6989 66.5437C23.6981 64.5647 22.6205 62.7211 20.837 61.645Z" fill="#D64740"/>
</svg>
