<svg width="60" height="60" viewBox="0 0 60 60" fill="none" xmlns="http://www.w3.org/2000/svg">
<g clip-path="url(#clip0)">
<path d="M3.75001 4.08176C-0.96499 8.97926 9.87947e-06 14.1818 9.87947e-06 29.9868C9.87947e-06 43.1118 -2.28999 56.2693 9.69501 59.3668C13.4375 60.3293 46.5975 60.3293 50.335 59.3618C55.325 58.0743 59.385 54.0268 59.94 46.9693C60.0175 45.9843 60.0175 14.0068 59.9375 13.0018C59.3475 5.48426 54.72 1.15176 48.6225 0.274261C47.225 0.0717615 46.945 0.0117615 39.775 -0.000738516C14.3425 0.0117615 8.76751 -1.12074 3.75001 4.08176Z" fill="url(#paint0_linear)"/>
<path d="M29.995 7.84706C20.9175 7.84706 12.2975 7.03956 9.00502 15.4896C7.64502 18.9796 7.84252 23.5121 7.84252 30.0021C7.84252 35.6971 7.66002 41.0496 9.00502 44.5121C12.29 52.9671 20.98 52.1571 29.99 52.1571C38.6825 52.1571 47.645 53.0621 50.9775 44.5121C52.34 40.9871 52.14 36.5221 52.14 30.0021C52.14 21.3471 52.6175 15.7596 48.42 11.5646C44.17 7.31456 38.4225 7.84706 29.985 7.84706H29.995ZM28.01 11.8396C46.945 11.8096 49.355 9.70457 48.025 38.9471C47.5525 49.2896 39.6775 48.1546 29.9975 48.1546C12.3475 48.1546 11.84 47.6496 11.84 29.9921C11.84 12.1296 13.24 11.8496 28.01 11.8346V11.8396ZM41.82 15.5171C40.3525 15.5171 39.1625 16.7071 39.1625 18.1746C39.1625 19.6421 40.3525 20.8321 41.82 20.8321C43.2875 20.8321 44.4775 19.6421 44.4775 18.1746C44.4775 16.7071 43.2875 15.5171 41.82 15.5171ZM29.995 18.6246C23.7125 18.6246 18.62 23.7196 18.62 30.0021C18.62 36.2846 23.7125 41.3771 29.995 41.3771C36.2775 41.3771 41.3675 36.2846 41.3675 30.0021C41.3675 23.7196 36.2775 18.6246 29.995 18.6246ZM29.995 22.6171C39.7575 22.6171 39.77 37.3871 29.995 37.3871C20.235 37.3871 20.22 22.6171 29.995 22.6171Z" fill="white"/>
</g>
<defs>
<linearGradient id="paint0_linear" x1="3.86506" y1="56.167" x2="59.6287" y2="7.90419" gradientUnits="userSpaceOnUse">
<stop stop-color="#FFDD55"/>
<stop offset="0.5" stop-color="#FF543E"/>
<stop offset="1" stop-color="#C837AB"/>
</linearGradient>
<clipPath id="clip0">
<rect width="60" height="60" fill="white"/>
</clipPath>
</defs>
</svg>
