<svg width="80" height="80" viewBox="0 0 80 80" fill="none" xmlns="http://www.w3.org/2000/svg">
<path d="M0 77.2656V2.73438C0 1.21875 1.57258 0 3.52823 0H76.4718C78.4274 0 80 1.21875 80 2.73438V77.2656C80 78.7812 78.4274 80 76.4718 80H3.52823C1.57258 80 0 78.7812 0 77.2656Z" fill="#7F8A96"/>
<path d="M67.7619 73.3438H11.8748C10.8264 73.3438 9.99976 72.6875 9.99976 71.8906V8.17187C9.99976 7.35937 10.8465 6.71875 11.8748 6.71875H67.7619C68.8102 6.71875 69.6369 7.375 69.6369 8.17187V71.8906C69.6369 72.6875 68.8102 73.3438 67.7619 73.3438Z" fill="#F2F5FB"/>
<path d="M67.7617 6.70312H61.5319C62.5802 6.70312 63.4069 7.35937 63.4069 8.15625V71.875C63.4069 72.6875 62.5601 73.3281 61.5319 73.3281H67.7617C68.8101 73.3281 69.6367 72.6719 69.6367 71.875V8.17187C69.6367 7.35937 68.8101 6.70312 67.7617 6.70312Z" fill="#E6E8F0"/>
<path d="M39.3349 38.4219C40.1923 38.4219 40.8873 37.8832 40.8873 37.2188C40.8873 36.5543 40.1923 36.0156 39.3349 36.0156C38.4775 36.0156 37.7825 36.5543 37.7825 37.2188C37.7825 37.8832 38.4775 38.4219 39.3349 38.4219Z" fill="#BED9FD"/>
<path d="M39.3349 56.8438C40.1923 56.8438 40.8873 56.3051 40.8873 55.6406C40.8873 54.9762 40.1923 54.4375 39.3349 54.4375C38.4775 54.4375 37.7825 54.9762 37.7825 55.6406C37.7825 56.3051 38.4775 56.8438 39.3349 56.8438Z" fill="#C9C9C9"/>
<path d="M2.60107 19.375V9.90625C2.60107 5.45312 7.25833 1.85938 12.9841 1.85938H25.2019L2.60107 19.375Z" fill="#7F8A96"/>
<path d="M54.6371 78.2188H66.8548C72.6008 78.2188 77.2379 74.6094 77.2379 70.1719V60.7031L54.6371 78.2188Z" fill="#7F8A96"/>
<path d="M76.472 0H70.2422C72.1978 0 73.7704 1.21875 73.7704 2.73438V77.2656C73.7704 78.7812 72.1978 80 70.2422 80H76.472C78.4277 80 80.0003 78.7812 80.0003 77.2656V2.73438C80.0003 1.21875 78.4277 0 76.472 0Z" fill="#747E8A"/>
<path d="M33.3869 38.4219H26.2901C25.4232 38.4219 24.7377 37.875 24.7377 37.2188C24.7377 36.5469 25.4433 36.0156 26.2901 36.0156H33.3667C34.2336 36.0156 34.9191 36.5625 34.9191 37.2188C34.9393 37.875 34.2336 38.4219 33.3869 38.4219Z" fill="#BED9FD"/>
<path d="M53.3262 38.4219H46.2496C45.3826 38.4219 44.6971 37.875 44.6971 37.2188C44.6971 36.5469 45.4028 36.0156 46.2496 36.0156H53.3262C54.1931 36.0156 54.8786 36.5625 54.8786 37.2188C54.8988 37.875 54.1931 38.4219 53.3262 38.4219Z" fill="#BED9FD"/>
<path d="M33.3869 56.8438H26.2901C25.4232 56.8438 24.7377 56.2969 24.7377 55.6406C24.7377 54.9688 25.4433 54.4375 26.2901 54.4375H33.3667C34.2336 54.4375 34.9191 54.9844 34.9191 55.6406C34.9393 56.3125 34.2336 56.8438 33.3869 56.8438Z" fill="#BED9FD"/>
<path d="M53.3262 56.8438H46.2496C45.3826 56.8438 44.6971 56.2969 44.6971 55.6406C44.6971 54.9688 45.4028 54.4375 46.2496 54.4375H53.3262C54.1931 54.4375 54.8786 54.9844 54.8786 55.6406C54.8988 56.3125 54.1931 56.8438 53.3262 56.8438Z" fill="#BED9FD"/>
<path d="M48.8502 12.047C48.0437 12.047 47.3985 12.5626 47.4187 13.1876L47.459 15.797L44.576 12.5626C44.2131 12.1564 43.5477 11.9845 42.9429 12.1251C42.3381 12.2657 41.9147 12.7032 41.9147 13.2032V19.3595C41.9147 19.9845 42.5598 20.4845 43.3663 20.4845C44.1727 20.4845 44.8179 19.9845 44.8179 19.3595V16.8126L47.5397 19.8751C47.9429 20.3282 48.6485 20.5313 49.2937 20.3595C49.959 20.2032 50.4026 19.7188 50.4026 19.1407L50.3219 13.172C50.3018 12.547 49.6566 12.0314 48.8502 12.047Z" fill="#77A2F3"/>
<path d="M26.9149 13.0624C26.7738 12.4999 26.1488 12.0781 25.4028 12.0468C24.6569 12.0156 23.9916 12.3749 23.7496 12.9218C23.7496 12.9374 23.7295 12.9531 23.7295 12.9531L22.7416 15.6562L21.7133 12.9374C21.7133 12.9218 21.6932 12.9062 21.6932 12.8906C21.4512 12.3437 20.7657 11.9843 20.0399 12.0312C19.294 12.0624 18.6891 12.4843 18.548 13.0624L17.1569 19.0781C17.0157 19.6874 17.5399 20.2812 18.3262 20.3906C19.1125 20.4999 19.8786 20.0937 20.0198 19.4843L20.4633 17.5781L21.2093 19.5624C21.2093 19.5781 21.2295 19.5937 21.2295 19.6093C21.4512 20.1249 22.0762 20.4687 22.7819 20.4687C23.4875 20.4687 24.1125 20.1093 24.3343 19.5937C24.3343 19.5781 24.3545 19.5624 24.3545 19.5624L25.0803 17.5781L25.5641 19.4999C25.7053 20.1093 26.4714 20.5156 27.2577 20.3906C28.044 20.2812 28.5682 19.6874 28.4069 19.0781L26.9149 13.0624Z" fill="#77A2F3"/>
<path d="M36.7339 14.3281C37.5404 14.3281 38.1855 13.8281 38.1855 13.2031C38.1855 12.5781 37.5404 12.0781 36.7339 12.0781H33.4073C32.6008 12.0781 31.9557 12.5781 31.9557 13.2031V19.3125C31.9557 19.9375 32.6008 20.4375 33.4073 20.4375H36.7339C37.5404 20.4375 38.1855 19.9375 38.1855 19.3125C38.1855 18.6875 37.5404 18.1875 36.7339 18.1875H34.8589V17.3906H36.492C37.2984 17.3906 37.9436 16.8906 37.9436 16.2656C37.9436 15.6406 37.2984 15.1406 36.492 15.1406H34.8589V14.3438L36.7339 14.3281Z" fill="#77A2F3"/>
<path d="M61.0681 12.0469C60.2617 12.0469 59.6165 12.5469 59.6165 13.1719V17.4219C59.6165 17.5781 59.6165 17.8438 58.9108 18.1094C58.7092 18.1875 58.5076 18.2188 58.2455 18.2188C57.9834 18.2188 57.7617 18.1719 57.56 18.0781C57.0157 17.8125 56.9754 17.6406 56.9754 17.4219V13.1719C56.9754 12.5469 56.3302 12.0469 55.5238 12.0469C54.7173 12.0469 54.0721 12.5469 54.0721 13.1719V17.4219C54.0721 18.4844 54.7173 19.3438 55.9875 19.9688C56.6528 20.2969 57.4189 20.4688 58.2455 20.4688C58.9512 20.4688 59.6165 20.3438 60.2012 20.1094C61.6931 19.5313 62.4996 18.5781 62.4996 17.4063V13.1719C62.5197 12.5469 61.8544 12.0469 61.0681 12.0469Z" fill="#77A2F3"/>
<path d="M58.286 26.9375H21.3304C20.4634 26.9375 19.778 26.3906 19.778 25.7344C19.778 25.0781 20.4836 24.5312 21.3304 24.5312H58.286C59.1529 24.5312 59.8384 25.0781 59.8384 25.7344C59.8384 26.3906 59.1529 26.9375 58.286 26.9375Z" fill="#C9C9C9"/>
<path d="M58.286 31.9062H21.3304C20.4634 31.9062 19.778 31.3594 19.778 30.7031C19.778 30.0312 20.4836 29.5 21.3304 29.5H58.286C59.153 29.5 59.8384 30.0469 59.8384 30.7031C59.8586 31.375 59.153 31.9062 58.286 31.9062Z" fill="#C9C9C9"/>
<path d="M58.286 45.1875H21.3304C20.4634 45.1875 19.778 44.6406 19.778 43.9844C19.778 43.3125 20.4836 42.7812 21.3304 42.7812H58.286C59.153 42.7812 59.8384 43.3281 59.8384 43.9844C59.8586 44.6563 59.153 45.1875 58.286 45.1875Z" fill="#C9C9C9"/>
<path d="M58.286 50.1562H21.3304C20.4634 50.1562 19.778 49.6094 19.778 48.9531C19.778 48.2969 20.4836 47.75 21.3304 47.75H58.286C59.1529 47.75 59.8384 48.2969 59.8384 48.9531C59.8384 49.6094 59.1529 50.1562 58.286 50.1562Z" fill="#C9C9C9"/>
<path d="M58.286 63.125H21.3304C20.4634 63.125 19.778 62.5781 19.778 61.9219C19.778 61.2656 20.4836 60.7188 21.3304 60.7188H58.286C59.1529 60.7188 59.8384 61.2656 59.8384 61.9219C59.8384 62.5781 59.1529 63.125 58.286 63.125Z" fill="#C9C9C9"/>
<path d="M58.286 68.0938H21.3304C20.4634 68.0938 19.778 67.5469 19.778 66.8906C19.778 66.2188 20.4836 65.6875 21.3304 65.6875H58.286C59.153 65.6875 59.8384 66.2344 59.8384 66.8906C59.8586 67.5469 59.153 68.0938 58.286 68.0938Z" fill="#C9C9C9"/>
</svg>
