<svg width="80" height="80" viewBox="0 0 80 80" fill="none" xmlns="http://www.w3.org/2000/svg">
<path d="M21.3151 26.8262H3.58828C2.5676 26.8262 1.74023 27.6646 1.74023 28.6989V47.0022L8.94941 50.2645L21.315 47.0022L22.2106 37.6911L21.3151 26.8262Z" fill="#7F8A96"/>
<path d="M28.0912 26.8262H21.3152V47.0022L24.5083 48.6333L29.9393 47.0022V28.6988C29.9393 27.6646 29.1119 26.8262 28.0912 26.8262Z" fill="#F2F5FB"/>
<path d="M25.7158 32.3806C26.3825 32.3806 26.923 31.8329 26.923 31.1572C26.923 30.4816 26.3825 29.9338 25.7158 29.9338C25.049 29.9338 24.5085 30.4816 24.5085 31.1572C24.5085 31.8329 25.049 32.3806 25.7158 32.3806Z" fill="#D8D8D8"/>
<path d="M25.7158 36.5298C26.3825 36.5298 26.923 35.982 26.923 35.3064C26.923 34.6307 26.3825 34.083 25.7158 34.083C25.049 34.083 24.5085 34.6307 24.5085 35.3064C24.5085 35.982 25.049 36.5298 25.7158 36.5298Z" fill="#D8D8D8"/>
<path d="M25.7158 42.8533C26.3825 42.8533 26.923 42.3055 26.923 41.6299C26.923 40.9542 26.3825 40.4065 25.7158 40.4065C25.049 40.4065 24.5085 40.9542 24.5085 41.6299C24.5085 42.3055 25.049 42.8533 25.7158 42.8533Z" fill="#D8D8D8"/>
<path d="M8.67725 35.0697L10.4228 33.301L8.67725 35.0697Z" fill="#FEFAF4"/>
<path d="M8.67742 36.2934C8.36853 36.2934 8.05947 36.174 7.82382 35.935C7.35235 35.4572 7.35235 34.6826 7.82382 34.2048L9.56933 32.436C10.0408 31.9582 10.8052 31.9582 11.2765 32.436C11.748 32.9137 11.748 33.6884 11.2765 34.166L9.53102 35.9348C9.29537 36.174 8.98631 36.2934 8.67742 36.2934Z" fill="#747E8A"/>
<path d="M9.44873 41.2995L16.57 34.083L9.44873 41.2995Z" fill="#FEFAF4"/>
<path d="M9.4489 42.5228C9.13985 42.5228 8.83096 42.4034 8.5953 42.1645C8.12383 41.6867 8.12383 40.912 8.5953 40.4344L15.7166 33.2179C16.1881 32.7402 16.9525 32.7402 17.4238 33.2179C17.8953 33.6957 17.8953 34.4704 17.4238 34.948L10.3027 42.1645C10.0669 42.4033 9.75796 42.5228 9.4489 42.5228Z" fill="#747E8A"/>
<path d="M47.7334 25.3893C47.0666 25.3893 46.5261 24.8415 46.5261 24.1659V21.8855C46.5261 21.2099 47.0666 20.6621 47.7334 20.6621C48.4001 20.6621 48.9406 21.2099 48.9406 21.8855V24.1659C48.9406 24.8415 48.4001 25.3893 47.7334 25.3893Z" fill="#B8B8B8"/>
<path d="M55.1427 28.3234L47.7331 29.9546L40.3235 28.3234V27.4095C40.3235 25.2575 42.045 23.5129 44.1686 23.5129H51.2977C53.4213 23.5129 55.1428 25.2575 55.1428 27.4095V28.3234H55.1427Z" fill="#B8B8B8"/>
<path d="M69.9571 37.8875C69.5647 37.8875 69.1798 37.6937 68.9477 37.3368C68.581 36.7724 68.735 36.0138 69.292 35.6422L75.443 31.5375C75.9999 31.1658 76.7484 31.3222 77.1153 31.8864C77.4819 32.4508 77.3279 33.2095 76.7709 33.5811L70.6199 37.6859C70.4154 37.8223 70.1849 37.8875 69.9571 37.8875Z" fill="#B8B8B8"/>
<path d="M69.7854 42.3207L66.5178 43.9519L63.2502 42.3207C62.4449 42.3207 61.792 41.6591 61.792 40.8431V35.7567C61.792 35.1242 62.2981 34.6113 62.9223 34.6113H70.1134C70.7376 34.6113 71.2437 35.1242 71.2437 35.7567V40.8431C71.2436 41.6591 70.5907 42.3207 69.7854 42.3207Z" fill="#D8D8D8"/>
<path d="M52.7121 42.3207L47.1276 43.9519L42.7538 42.3207C41.4115 42.3207 40.3232 41.2181 40.3232 39.8577V28.3235H55.1425V39.8577C55.1427 41.2181 54.0546 42.3207 52.7121 42.3207Z" fill="#D8D8D8"/>
<path d="M74.919 47.0023L58.6637 48.6334L37.5068 47.0023V43.2481C37.5068 42.7359 37.9165 42.3208 38.4219 42.3208H74.0039C74.5093 42.3208 74.919 42.7359 74.919 43.2481V47.0023Z" fill="#E7E7E7"/>
<path d="M75.7901 79.9998H4.85777C3.71411 79.9998 2.78711 79.0603 2.78711 77.9015V53.4622L40.0005 51.8311L77.8611 53.4622V77.9015C77.8609 79.0604 76.9338 79.9998 75.7901 79.9998Z" fill="#F2F5FB"/>
<path d="M73.0317 53.4622V80H75.7901C76.9337 80 77.8607 79.0604 77.8607 77.9016V53.4622L75.4462 51.8311L73.0317 53.4622Z" fill="#E6E8F0"/>
<path d="M41.4502 60.8183C42.1169 60.8183 42.6574 60.2706 42.6574 59.595C42.6574 58.9193 42.1169 58.3716 41.4502 58.3716C40.7834 58.3716 40.2429 58.9193 40.2429 59.595C40.2429 60.2706 40.7834 60.8183 41.4502 60.8183Z" fill="#C9C9C9"/>
<path d="M48.3349 60.8183C49.0017 60.8183 49.5422 60.2706 49.5422 59.595C49.5422 58.9193 49.0017 58.3716 48.3349 58.3716C47.6682 58.3716 47.1277 58.9193 47.1277 59.595C47.1277 60.2706 47.6682 60.8183 48.3349 60.8183Z" fill="#C9C9C9"/>
<path d="M55.2192 60.8183C55.8859 60.8183 56.4264 60.2706 56.4264 59.595C56.4264 58.9193 55.8859 58.3716 55.2192 58.3716C54.5525 58.3716 54.012 58.9193 54.012 59.595C54.012 60.2706 54.5525 60.8183 55.2192 60.8183Z" fill="#C9C9C9"/>
<path d="M62.1045 60.8183C62.7712 60.8183 63.3117 60.2706 63.3117 59.595C63.3117 58.9193 62.7712 58.3716 62.1045 58.3716C61.4377 58.3716 60.8972 58.9193 60.8972 59.595C60.8972 60.2706 61.4377 60.8183 62.1045 60.8183Z" fill="#C9C9C9"/>
<path d="M68.9892 60.8183C69.656 60.8183 70.1965 60.2706 70.1965 59.595C70.1965 58.9193 69.656 58.3716 68.9892 58.3716C68.3225 58.3716 67.782 58.9193 67.782 59.595C67.782 60.2706 68.3225 60.8183 68.9892 60.8183Z" fill="#C9C9C9"/>
<path d="M26.2762 72.3918H9.63521C9.18949 72.3918 8.82812 72.0256 8.82812 71.574V62.2888C8.82812 61.8371 9.18949 61.4709 9.63521 61.4709H26.2762C26.7219 61.4709 27.0833 61.8371 27.0833 62.2888V71.574C27.0833 72.0256 26.7219 72.3918 26.2762 72.3918Z" fill="#7F8A96"/>
<path d="M69.4597 73.5757H41.3312C40.6531 73.5757 40.1035 73.0186 40.1035 72.3316V65.8708C40.1035 65.1838 40.6532 64.6267 41.3312 64.6267H69.4597C70.1377 64.6267 70.6874 65.1838 70.6874 65.8708V72.3316C70.6874 73.0186 70.1377 73.5757 69.4597 73.5757Z" fill="#7F8A96"/>
<path d="M26.2762 61.4709H21.4473C21.893 61.4709 22.2543 61.8371 22.2543 62.2888V71.574C22.2543 72.0258 21.893 72.3918 21.4473 72.3918H26.2762C26.722 72.3918 27.0833 72.0256 27.0833 71.574V62.2888C27.0833 61.8371 26.722 61.4709 26.2762 61.4709Z" fill="#747E8A"/>
<path d="M69.4603 64.6267H64.6313C65.3093 64.6267 65.859 65.1838 65.859 65.8708V72.3314C65.859 73.0185 65.3093 73.5757 64.6313 73.5757H69.4603C70.1383 73.5757 70.688 73.0186 70.688 72.3314V65.8708C70.688 65.1838 70.1383 64.6267 69.4603 64.6267Z" fill="#747E8A"/>
<path d="M34.4658 79.9995V53.4092C34.4658 52.6747 33.9252 52.0793 33.2585 52.0793C32.5918 52.0793 32.0513 52.6747 32.0513 53.4092V79.9995H34.4658Z" fill="#E6E8F0"/>
<path d="M75.4265 7.84677L40.7173 9.47794L4.57275 7.84677L8.78024 1.01002C9.16688 0.381858 9.84583 0 10.5765 0H69.4228C70.1534 0 70.8324 0.381858 71.219 1.01002L75.4265 7.84677Z" fill="#D8D8D8"/>
<path d="M71.2197 1.01002C70.833 0.381695 70.1541 0 69.4235 0H64.5945C65.3251 0 66.0041 0.381858 66.3907 1.01002L70.598 7.84677L73.267 9.47794L75.427 7.84677L71.2197 1.01002Z" fill="#C9C9C9"/>
<path d="M0.779074 47.0024H79.2209C79.6512 47.0024 80 47.3559 80 47.7919V52.6727C80 53.1088 79.6512 53.4622 79.2209 53.4622H0.779074C0.348813 53.4622 0 53.1088 0 52.6727V47.7919C0 47.3559 0.348813 47.0024 0.779074 47.0024Z" fill="#F9EED7"/>
<path d="M79.2211 47.0024H74.3921C74.8224 47.0024 75.1712 47.3559 75.1712 47.7919V52.6726C75.1712 53.1086 74.8224 53.4621 74.3921 53.4621H79.2211C79.6513 53.4621 80.0001 53.1086 80.0001 52.6726V47.7919C80.0001 47.3559 79.6513 47.0024 79.2211 47.0024Z" fill="#E9E0C3"/>
<path d="M79.2209 13.0015H0.779074C0.348813 13.0015 0 12.648 0 12.212V8.63617C0 8.20016 0.348813 7.84668 0.779074 7.84668H79.2209C79.6512 7.84668 80 8.20016 80 8.63617V12.2119C80 12.648 79.6512 13.0015 79.2209 13.0015Z" fill="#7F8A96"/>
</svg>
