<svg width="40" height="40" viewBox="0 0 40 40" fill="none" xmlns="http://www.w3.org/2000/svg">
<path d="M23.2726 25.0395C21.0261 26.8342 18.1777 27.7006 15.3124 27.4608C12.4471 27.221 9.78233 25.8932 7.86542 23.7501C5.94851 21.6069 4.92496 18.8112 5.00497 15.9369C5.08498 13.0627 6.26249 10.3282 8.29566 8.29505C10.3288 6.26188 13.0633 5.08437 15.9376 5.00436C18.8118 4.92435 21.6076 5.9479 23.7507 7.86481C25.8938 9.78172 27.2216 12.4465 27.4614 15.3118C27.7012 18.1771 26.8348 21.0255 25.0401 23.272L34.6351 32.8645C34.8698 33.0992 35.0017 33.4175 35.0017 33.7495C35.0017 34.0814 34.8698 34.3997 34.6351 34.6345C34.4004 34.8692 34.082 35.001 33.7501 35.001C33.4181 35.001 33.0998 34.8692 32.8651 34.6345L23.2751 25.0395H23.2726ZM25.0001 16.2495C25.0001 15.1004 24.7737 13.9626 24.334 12.901C23.8943 11.8394 23.2498 10.8748 22.4373 10.0623C21.6247 9.24977 20.6602 8.60525 19.5986 8.16552C18.537 7.72579 17.3991 7.49946 16.2501 7.49946C15.101 7.49946 13.9632 7.72579 12.9016 8.16552C11.84 8.60525 10.8754 9.24977 10.0629 10.0623C9.25038 10.8748 8.60586 11.8394 8.16613 12.901C7.7264 13.9626 7.50007 15.1004 7.50007 16.2495C7.50007 18.5701 8.42195 20.7957 10.0629 22.4366C11.7038 24.0776 13.9294 24.9995 16.2501 24.9995C18.5707 24.9995 20.7963 24.0776 22.4373 22.4366C24.0782 20.7957 25.0001 18.5701 25.0001 16.2495Z" fill="white"/>
</svg>
