<svg width="80" height="80" viewBox="0 0 80 80" fill="none" xmlns="http://www.w3.org/2000/svg">
<path d="M0 36.6101H80V71.8644C80 76.358 76.2952 80 71.7241 80H0V36.6101Z" fill="#F0DBC2"/>
<path d="M0 44.7458H67.5862C69.8716 44.7458 71.7241 46.5668 71.7241 48.8137V67.7968C71.7241 70.0435 69.8716 71.8646 67.5862 71.8646H0V44.7458Z" fill="#F2B9B8"/>
<path d="M0 44.7458H67.5862C69.8716 44.7458 71.7241 46.5668 71.7241 48.8137V67.7968C71.7241 70.0435 69.8716 71.8646 67.5862 71.8646H0V44.7458Z" fill="#F2B9B8"/>
<path d="M0 36.6103L48.2759 8.13574C64.698 8.1384 78.4276 20.4111 79.9876 36.4816L80 36.6103H0Z" fill="#F29C9B"/>
<path d="M63.4478 23.0511C68.0184 23.0511 71.7237 19.4086 71.7237 14.9154C71.7237 10.4222 68.0184 6.77979 63.4478 6.77979C58.8771 6.77979 55.1719 10.4222 55.1719 14.9154C55.1719 19.4086 58.8771 23.0511 63.4478 23.0511Z" fill="#F0614A"/>
<path d="M67.5665 7.86426C67.3678 13.9118 62.4272 18.7686 56.2754 18.964C58.543 22.8651 63.5981 24.2208 67.5665 21.9932C71.5347 19.764 72.914 14.7946 70.6479 10.8935C69.9141 9.63113 68.8506 8.58566 67.5665 7.86426Z" fill="#EA5242"/>
<path d="M64.827 12.2034H62.0684C62.0768 5.46719 67.6298 0.00812501 74.4822 0V2.71188C69.1527 2.71735 64.8326 6.96407 64.827 12.2034Z" fill="#965735"/>
<path d="M50.0586 18.5863L52.0093 16.6687L47.8711 12.6007L45.9205 14.5182L50.0586 18.5863Z" fill="#965735"/>
<path d="M32.7019 26.7209L36.8401 22.6528L34.8895 20.7353L30.7513 24.8033L32.7019 26.7209Z" fill="#965735"/>
<path d="M40.4039 32.1466L42.3545 30.229L38.2163 26.161L36.2657 28.0785L40.4039 32.1466Z" fill="#965735"/>
<path d="M45.1128 26.725L49.251 22.657L47.3003 20.7394L43.1622 24.8075L45.1128 26.725Z" fill="#965735"/>
<path d="M68.5603 32.1445L72.6985 28.0764L70.7479 26.1588L66.6097 30.2269L68.5603 32.1445Z" fill="#965735"/>
<path d="M53.3892 32.1459L57.5273 28.0779L55.5767 26.1603L51.4385 30.2283L53.3892 32.1459Z" fill="#965735"/>
<path d="M23.044 32.1518L27.1821 28.0837L25.2315 26.1662L21.0933 30.2342L23.044 32.1518Z" fill="#965735"/>
<path d="M50.5978 44.7457H67.5855C69.8709 44.7457 71.7234 46.5667 71.7234 48.8136V67.7967C71.7234 70.0434 69.8709 71.8645 67.5855 71.8645H18.6558L9.07373 80H71.7234C76.2945 80 79.9993 76.358 79.9993 71.8644V36.6101H60.1814L50.5978 44.7457Z" fill="#EBD3B7"/>
<path d="M67.5859 71.8645C69.8713 71.8645 71.7238 70.0435 71.7238 67.7967V48.8137C71.7238 46.5669 69.8713 44.7458 67.5859 44.7458H50.5983L18.6562 71.8645H67.5859Z" fill="#F2AEAC"/>
<path d="M71.7241 56.9492H0V59.6611H71.7241V56.9492Z" fill="#F28685"/>
</svg>
